<svg width="1440" height="719" viewBox="0 0 1440 719" fill="none" xmlns="http://www.w3.org/2000/svg">
<path d="M744 385C744 621.93 456.829 684 184 684C-88.8287 684 -244 621.93 -244 385C-244 148.07 -60 -62 250 -44C395.118 -44 423.621 71.4724 514 158C593.538 234.148 744 274.093 744 385Z" fill="#DFDFDF"/>
<path d="M1024.25 102.55C1041.89 70.2998 1082.2 18.8113 1115.71 0H1439.71V672.995C1399.71 658 1328.49 676.291 1318.03 679.439C1306.21 682.995 1290.21 688.953 1271.8 696.55C1259.15 701.773 1246.66 703.429 1233.71 708C1224.27 711.333 1217.52 713.169 1209.25 714.217C1193.34 716.234 1178.71 718.995 1161.47 718.995H1087.36H1001.25C975.728 718.995 957.211 718.518 925.359 714.995C880.211 710 836.711 704.671 793.359 682.995C773.814 673.222 755.211 659.276 741.359 647.439C739.16 645.56 730.359 637.661 730.359 637.661C725.793 633.878 724.211 630.67 718.47 625.217C677.711 586.5 677.94 520.705 690.248 470.106C697.673 439.581 706.09 407.638 723.359 380.995C739.783 355.655 765.548 340.201 789.359 322.883C843.432 283.558 920.358 266.105 961.804 210.55C975.845 191.729 989.561 174.172 1000.91 153.439C1009.9 137.029 1015.27 118.966 1024.25 102.55Z" fill="black"/>
<circle cx="409" cy="71" r="9" fill="#DFDFDF"/>
<circle cx="435" cy="71" r="9" fill="#DFDFDF"/>
<circle cx="461" cy="71" r="9" fill="#DFDFDF"/>
<circle cx="487" cy="71" r="9" fill="#DFDFDF"/>
<circle cx="513" cy="71" r="9" fill="#DFDFDF"/>
<circle cx="539" cy="71" r="9" fill="#DFDFDF"/>
<circle cx="565" cy="71" r="9" fill="#DFDFDF"/>
<circle cx="591" cy="71" r="9" fill="#DFDFDF"/>
<circle cx="617" cy="71" r="9" fill="#DFDFDF"/>
<circle cx="643" cy="71" r="9" fill="#DFDFDF"/>
<circle cx="669" cy="71" r="9" fill="#DFDFDF"/>
<circle cx="695" cy="71" r="9" fill="#DFDFDF"/>
<circle cx="721" cy="71" r="9" fill="#DFDFDF"/>
<circle cx="747" cy="71" r="9" fill="#DFDFDF"/>
<circle cx="773" cy="71" r="9" fill="#DFDFDF"/>
<circle cx="799" cy="71" r="9" fill="#DFDFDF"/>
<circle cx="825" cy="71" r="9" fill="#DFDFDF"/>
<circle cx="851" cy="71" r="9" fill="#DFDFDF"/>
<circle cx="877" cy="71" r="9" fill="#DFDFDF"/>
<circle cx="903" cy="71" r="9" fill="#DFDFDF"/>
<circle cx="929" cy="71" r="9" fill="#DFDFDF"/>
<circle cx="955" cy="71" r="9" fill="#DFDFDF"/>
<circle cx="981" cy="71" r="9" fill="#DFDFDF"/>
<circle cx="1007" cy="71" r="9" fill="#DFDFDF"/>
<circle cx="1033" cy="71" r="9" fill="#DFDFDF"/>
<circle cx="409" cy="97" r="9" fill="#DFDFDF"/>
<circle cx="435" cy="97" r="9" fill="#DFDFDF"/>
<circle cx="461" cy="97" r="9" fill="#DFDFDF"/>
<circle cx="487" cy="97" r="9" fill="#DFDFDF"/>
<circle cx="513" cy="97" r="9" fill="#DFDFDF"/>
<circle cx="539" cy="97" r="9" fill="#DFDFDF"/>
<circle cx="565" cy="97" r="9" fill="#DFDFDF"/>
<circle cx="591" cy="97" r="9" fill="#DFDFDF"/>
<circle cx="617" cy="97" r="9" fill="#DFDFDF"/>
<circle cx="643" cy="97" r="9" fill="#DFDFDF"/>
<circle cx="669" cy="97" r="9" fill="#DFDFDF"/>
<circle cx="695" cy="97" r="9" fill="#DFDFDF"/>
<circle cx="721" cy="97" r="9" fill="#DFDFDF"/>
<circle cx="747" cy="97" r="9" fill="#DFDFDF"/>
<circle cx="773" cy="97" r="9" fill="#DFDFDF"/>
<circle cx="799" cy="97" r="9" fill="#DFDFDF"/>
<circle cx="825" cy="97" r="9" fill="#DFDFDF"/>
<circle cx="851" cy="97" r="9" fill="#DFDFDF"/>
<circle cx="877" cy="97" r="9" fill="#DFDFDF"/>
<circle cx="903" cy="97" r="9" fill="#DFDFDF"/>
<circle cx="929" cy="97" r="9" fill="#DFDFDF"/>
<circle cx="955" cy="97" r="9" fill="#DFDFDF"/>
<circle cx="981" cy="97" r="9" fill="#DFDFDF"/>
<circle cx="1007" cy="97" r="9" fill="#DFDFDF"/>
<circle cx="1033" cy="97" r="9" fill="#DFDFDF"/>
<circle cx="409" cy="123" r="9" fill="#DFDFDF"/>
<circle cx="435" cy="123" r="9" fill="#DFDFDF"/>
<circle cx="461" cy="123" r="9" fill="#DFDFDF"/>
<circle cx="487" cy="123" r="9" fill="#DFDFDF"/>
<circle cx="513" cy="123" r="9" fill="#DFDFDF"/>
<circle cx="539" cy="123" r="9" fill="#DFDFDF"/>
<circle cx="565" cy="123" r="9" fill="#DFDFDF"/>
<circle cx="591" cy="123" r="9" fill="#DFDFDF"/>
<circle cx="617" cy="123" r="9" fill="#DFDFDF"/>
<circle cx="643" cy="123" r="9" fill="#DFDFDF"/>
<circle cx="669" cy="123" r="9" fill="#DFDFDF"/>
<circle cx="695" cy="123" r="9" fill="#DFDFDF"/>
<circle cx="721" cy="123" r="9" fill="#DFDFDF"/>
<circle cx="747" cy="123" r="9" fill="#DFDFDF"/>
<circle cx="773" cy="123" r="9" fill="#DFDFDF"/>
<circle cx="799" cy="123" r="9" fill="#DFDFDF"/>
<circle cx="825" cy="123" r="9" fill="#DFDFDF"/>
<circle cx="851" cy="123" r="9" fill="#DFDFDF"/>
<circle cx="877" cy="123" r="9" fill="#DFDFDF"/>
<circle cx="903" cy="123" r="9" fill="#DFDFDF"/>
<circle cx="929" cy="123" r="9" fill="#DFDFDF"/>
<circle cx="955" cy="123" r="9" fill="#DFDFDF"/>
<circle cx="981" cy="123" r="9" fill="#DFDFDF"/>
<circle cx="1007" cy="123" r="9" fill="#DFDFDF"/>
<circle cx="1033" cy="123" r="9" fill="#DFDFDF"/>
<circle cx="409" cy="149" r="9" fill="#DFDFDF"/>
<circle cx="435" cy="149" r="9" fill="#DFDFDF"/>
<circle cx="461" cy="149" r="9" fill="#DFDFDF"/>
<circle cx="487" cy="149" r="9" fill="#DFDFDF"/>
<circle cx="513" cy="149" r="9" fill="#DFDFDF"/>
<circle cx="539" cy="149" r="9" fill="#DFDFDF"/>
<circle cx="565" cy="149" r="9" fill="#DFDFDF"/>
<circle cx="591" cy="149" r="9" fill="#DFDFDF"/>
<circle cx="617" cy="149" r="9" fill="#DFDFDF"/>
<circle cx="643" cy="149" r="9" fill="#DFDFDF"/>
<circle cx="669" cy="149" r="9" fill="#DFDFDF"/>
<circle cx="695" cy="149" r="9" fill="#DFDFDF"/>
<circle cx="721" cy="149" r="9" fill="#DFDFDF"/>
<circle cx="747" cy="149" r="9" fill="#DFDFDF"/>
<circle cx="773" cy="149" r="9" fill="#DFDFDF"/>
<circle cx="799" cy="149" r="9" fill="#DFDFDF"/>
<circle cx="825" cy="149" r="9" fill="#DFDFDF"/>
<circle cx="851" cy="149" r="9" fill="#DFDFDF"/>
<circle cx="877" cy="149" r="9" fill="#DFDFDF"/>
<circle cx="903" cy="149" r="9" fill="#DFDFDF"/>
<circle cx="929" cy="149" r="9" fill="#DFDFDF"/>
<circle cx="955" cy="149" r="9" fill="#DFDFDF"/>
<circle cx="981" cy="149" r="9" fill="#DFDFDF"/>
<circle cx="1007" cy="149" r="9" fill="#DFDFDF"/>
<circle cx="1033" cy="149" r="9" fill="#DFDFDF"/>
<circle cx="409" cy="175" r="9" fill="#DFDFDF"/>
<circle cx="435" cy="175" r="9" fill="#DFDFDF"/>
<circle cx="461" cy="175" r="9" fill="#DFDFDF"/>
<circle cx="487" cy="175" r="9" fill="#DFDFDF"/>
<circle cx="513" cy="175" r="9" fill="#DFDFDF"/>
<circle cx="539" cy="175" r="9" fill="#DFDFDF"/>
<circle cx="565" cy="175" r="9" fill="#DFDFDF"/>
<circle cx="591" cy="175" r="9" fill="#DFDFDF"/>
<circle cx="617" cy="175" r="9" fill="#DFDFDF"/>
<circle cx="643" cy="175" r="9" fill="#DFDFDF"/>
<circle cx="669" cy="175" r="9" fill="#DFDFDF"/>
<circle cx="695" cy="175" r="9" fill="#DFDFDF"/>
<circle cx="721" cy="175" r="9" fill="#DFDFDF"/>
<circle cx="747" cy="175" r="9" fill="#DFDFDF"/>
<circle cx="773" cy="175" r="9" fill="#DFDFDF"/>
<circle cx="799" cy="175" r="9" fill="#DFDFDF"/>
<circle cx="825" cy="175" r="9" fill="#DFDFDF"/>
<circle cx="851" cy="175" r="9" fill="#DFDFDF"/>
<circle cx="877" cy="175" r="9" fill="#DFDFDF"/>
<circle cx="903" cy="175" r="9" fill="#DFDFDF"/>
<circle cx="929" cy="175" r="9" fill="#DFDFDF"/>
<circle cx="955" cy="175" r="9" fill="#DFDFDF"/>
<circle cx="981" cy="175" r="9" fill="#DFDFDF"/>
<circle cx="1007" cy="175" r="9" fill="#DFDFDF"/>
<circle cx="1033" cy="175" r="9" fill="#DFDFDF"/>
<circle cx="409" cy="201" r="9" fill="#DFDFDF"/>
<circle cx="435" cy="201" r="9" fill="#DFDFDF"/>
<circle cx="461" cy="201" r="9" fill="#DFDFDF"/>
<circle cx="487" cy="201" r="9" fill="#DFDFDF"/>
<circle cx="513" cy="201" r="9" fill="#DFDFDF"/>
<circle cx="539" cy="201" r="9" fill="#DFDFDF"/>
<circle cx="565" cy="201" r="9" fill="#DFDFDF"/>
<circle cx="591" cy="201" r="9" fill="#DFDFDF"/>
<circle cx="617" cy="201" r="9" fill="#DFDFDF"/>
<circle cx="643" cy="201" r="9" fill="#DFDFDF"/>
<circle cx="669" cy="201" r="9" fill="#DFDFDF"/>
<circle cx="695" cy="201" r="9" fill="#DFDFDF"/>
<circle cx="721" cy="201" r="9" fill="#DFDFDF"/>
<circle cx="747" cy="201" r="9" fill="#DFDFDF"/>
<circle cx="773" cy="201" r="9" fill="#DFDFDF"/>
<circle cx="799" cy="201" r="9" fill="#DFDFDF"/>
<circle cx="825" cy="201" r="9" fill="#DFDFDF"/>
<circle cx="851" cy="201" r="9" fill="#DFDFDF"/>
<circle cx="877" cy="201" r="9" fill="#DFDFDF"/>
<circle cx="903" cy="201" r="9" fill="#DFDFDF"/>
<circle cx="929" cy="201" r="9" fill="#DFDFDF"/>
<circle cx="955" cy="201" r="9" fill="#DFDFDF"/>
<circle cx="981" cy="201" r="9" fill="#DFDFDF"/>
<circle cx="1007" cy="201" r="9" fill="#DFDFDF"/>
<circle cx="1033" cy="201" r="9" fill="#DFDFDF"/>
<circle cx="409" cy="227" r="9" fill="#DFDFDF"/>
<circle cx="435" cy="227" r="9" fill="#DFDFDF"/>
<circle cx="461" cy="227" r="9" fill="#DFDFDF"/>
<circle cx="487" cy="227" r="9" fill="#DFDFDF"/>
<circle cx="513" cy="227" r="9" fill="#DFDFDF"/>
<circle cx="539" cy="227" r="9" fill="#DFDFDF"/>
<circle cx="565" cy="227" r="9" fill="#DFDFDF"/>
<circle cx="591" cy="227" r="9" fill="#DFDFDF"/>
<circle cx="617" cy="227" r="9" fill="#DFDFDF"/>
<circle cx="643" cy="227" r="9" fill="#DFDFDF"/>
<circle cx="669" cy="227" r="9" fill="#DFDFDF"/>
<circle cx="695" cy="227" r="9" fill="#DFDFDF"/>
<circle cx="721" cy="227" r="9" fill="#DFDFDF"/>
<circle cx="747" cy="227" r="9" fill="#DFDFDF"/>
<circle cx="773" cy="227" r="9" fill="#DFDFDF"/>
<circle cx="799" cy="227" r="9" fill="#DFDFDF"/>
<circle cx="825" cy="227" r="9" fill="#DFDFDF"/>
<circle cx="851" cy="227" r="9" fill="#DFDFDF"/>
<circle cx="877" cy="227" r="9" fill="#DFDFDF"/>
<circle cx="903" cy="227" r="9" fill="#DFDFDF"/>
<circle cx="929" cy="227" r="9" fill="#DFDFDF"/>
<circle cx="955" cy="227" r="9" fill="#DFDFDF"/>
<circle cx="981" cy="227" r="9" fill="#DFDFDF"/>
<circle cx="1007" cy="227" r="9" fill="#DFDFDF"/>
<circle cx="1033" cy="227" r="9" fill="#DFDFDF"/>
<circle cx="409" cy="253" r="9" fill="#DFDFDF"/>
<circle cx="435" cy="253" r="9" fill="#DFDFDF"/>
<circle cx="461" cy="253" r="9" fill="#DFDFDF"/>
<circle cx="487" cy="253" r="9" fill="#DFDFDF"/>
<circle cx="513" cy="253" r="9" fill="#DFDFDF"/>
<circle cx="539" cy="253" r="9" fill="#DFDFDF"/>
<circle cx="565" cy="253" r="9" fill="#DFDFDF"/>
<circle cx="591" cy="253" r="9" fill="#DFDFDF"/>
<circle cx="617" cy="253" r="9" fill="#DFDFDF"/>
<circle cx="643" cy="253" r="9" fill="#DFDFDF"/>
<circle cx="669" cy="253" r="9" fill="#DFDFDF"/>
<circle cx="695" cy="253" r="9" fill="#DFDFDF"/>
<circle cx="721" cy="253" r="9" fill="#DFDFDF"/>
<circle cx="747" cy="253" r="9" fill="#DFDFDF"/>
<circle cx="773" cy="253" r="9" fill="#DFDFDF"/>
<circle cx="799" cy="253" r="9" fill="#DFDFDF"/>
<circle cx="825" cy="253" r="9" fill="#DFDFDF"/>
<circle cx="851" cy="253" r="9" fill="#DFDFDF"/>
<circle cx="877" cy="253" r="9" fill="#DFDFDF"/>
<circle cx="903" cy="253" r="9" fill="#DFDFDF"/>
<circle cx="929" cy="253" r="9" fill="#DFDFDF"/>
<circle cx="955" cy="253" r="9" fill="#DFDFDF"/>
<circle cx="981" cy="253" r="9" fill="#DFDFDF"/>
<circle cx="1007" cy="253" r="9" fill="#DFDFDF"/>
<circle cx="1033" cy="253" r="9" fill="#DFDFDF"/>
<circle cx="409" cy="279" r="9" fill="#DFDFDF"/>
<circle cx="435" cy="279" r="9" fill="#DFDFDF"/>
<circle cx="461" cy="279" r="9" fill="#DFDFDF"/>
<circle cx="487" cy="279" r="9" fill="#DFDFDF"/>
<circle cx="513" cy="279" r="9" fill="#DFDFDF"/>
<circle cx="539" cy="279" r="9" fill="#DFDFDF"/>
<circle cx="565" cy="279" r="9" fill="#DFDFDF"/>
<circle cx="591" cy="279" r="9" fill="#DFDFDF"/>
<circle cx="617" cy="279" r="9" fill="#DFDFDF"/>
<circle cx="643" cy="279" r="9" fill="#DFDFDF"/>
<circle cx="669" cy="279" r="9" fill="#DFDFDF"/>
<circle cx="695" cy="279" r="9" fill="#DFDFDF"/>
<circle cx="721" cy="279" r="9" fill="#DFDFDF"/>
<circle cx="747" cy="279" r="9" fill="#DFDFDF"/>
<circle cx="773" cy="279" r="9" fill="#DFDFDF"/>
<circle cx="799" cy="279" r="9" fill="#DFDFDF"/>
<circle cx="825" cy="279" r="9" fill="#DFDFDF"/>
<circle cx="851" cy="279" r="9" fill="#DFDFDF"/>
<circle cx="877" cy="279" r="9" fill="#DFDFDF"/>
<circle cx="903" cy="279" r="9" fill="#DFDFDF"/>
<circle cx="929" cy="279" r="9" fill="#DFDFDF"/>
<circle cx="955" cy="279" r="9" fill="#DFDFDF"/>
<circle cx="981" cy="279" r="9" fill="#DFDFDF"/>
<circle cx="1007" cy="279" r="9" fill="#DFDFDF"/>
<circle cx="1033" cy="279" r="9" fill="#DFDFDF"/>
<circle cx="409" cy="305" r="9" fill="#DFDFDF"/>
<circle cx="435" cy="305" r="9" fill="#DFDFDF"/>
<circle cx="461" cy="305" r="9" fill="#DFDFDF"/>
<circle cx="487" cy="305" r="9" fill="#DFDFDF"/>
<circle cx="513" cy="305" r="9" fill="#DFDFDF"/>
<circle cx="539" cy="305" r="9" fill="#DFDFDF"/>
<circle cx="565" cy="305" r="9" fill="#DFDFDF"/>
<circle cx="591" cy="305" r="9" fill="#DFDFDF"/>
<circle cx="617" cy="305" r="9" fill="#DFDFDF"/>
<circle cx="643" cy="305" r="9" fill="#DFDFDF"/>
<circle cx="669" cy="305" r="9" fill="#DFDFDF"/>
<circle cx="695" cy="305" r="9" fill="#DFDFDF"/>
<circle cx="721" cy="305" r="9" fill="#DFDFDF"/>
<circle cx="747" cy="305" r="9" fill="#DFDFDF"/>
<circle cx="773" cy="305" r="9" fill="#DFDFDF"/>
<circle cx="799" cy="305" r="9" fill="#DFDFDF"/>
<circle cx="825" cy="305" r="9" fill="#DFDFDF"/>
<circle cx="851" cy="305" r="9" fill="#DFDFDF"/>
<circle cx="877" cy="305" r="9" fill="#DFDFDF"/>
<circle cx="903" cy="305" r="9" fill="#DFDFDF"/>
<circle cx="929" cy="305" r="9" fill="#DFDFDF"/>
<circle cx="955" cy="305" r="9" fill="#DFDFDF"/>
<circle cx="981" cy="305" r="9" fill="#DFDFDF"/>
<circle cx="1007" cy="305" r="9" fill="#DFDFDF"/>
<circle cx="1033" cy="305" r="9" fill="#DFDFDF"/>
<circle cx="409" cy="331" r="9" fill="#DFDFDF"/>
<circle cx="435" cy="331" r="9" fill="#DFDFDF"/>
<circle cx="461" cy="331" r="9" fill="#DFDFDF"/>
<circle cx="487" cy="331" r="9" fill="#DFDFDF"/>
<circle cx="513" cy="331" r="9" fill="#DFDFDF"/>
<circle cx="539" cy="331" r="9" fill="#DFDFDF"/>
<circle cx="565" cy="331" r="9" fill="#DFDFDF"/>
<circle cx="591" cy="331" r="9" fill="#DFDFDF"/>
<circle cx="617" cy="331" r="9" fill="#DFDFDF"/>
<circle cx="643" cy="331" r="9" fill="#DFDFDF"/>
<circle cx="669" cy="331" r="9" fill="#DFDFDF"/>
<circle cx="695" cy="331" r="9" fill="#DFDFDF"/>
<circle cx="721" cy="331" r="9" fill="#DFDFDF"/>
<circle cx="747" cy="331" r="9" fill="#DFDFDF"/>
<circle cx="773" cy="331" r="9" fill="#DFDFDF"/>
<circle cx="799" cy="331" r="9" fill="#DFDFDF"/>
<circle cx="825" cy="331" r="9" fill="#DFDFDF"/>
<circle cx="851" cy="331" r="9" fill="#DFDFDF"/>
<circle cx="877" cy="331" r="9" fill="#DFDFDF"/>
<circle cx="903" cy="331" r="9" fill="#DFDFDF"/>
<circle cx="929" cy="331" r="9" fill="#DFDFDF"/>
<circle cx="955" cy="331" r="9" fill="#DFDFDF"/>
<circle cx="981" cy="331" r="9" fill="#DFDFDF"/>
<circle cx="1007" cy="331" r="9" fill="#DFDFDF"/>
<circle cx="1033" cy="331" r="9" fill="#DFDFDF"/>
<circle cx="409" cy="357" r="9" fill="#DFDFDF"/>
<circle cx="435" cy="357" r="9" fill="#DFDFDF"/>
<circle cx="461" cy="357" r="9" fill="#DFDFDF"/>
<circle cx="487" cy="357" r="9" fill="#DFDFDF"/>
<circle cx="513" cy="357" r="9" fill="#DFDFDF"/>
<circle cx="539" cy="357" r="9" fill="#DFDFDF"/>
<circle cx="565" cy="357" r="9" fill="#DFDFDF"/>
<circle cx="591" cy="357" r="9" fill="#DFDFDF"/>
<circle cx="617" cy="357" r="9" fill="#DFDFDF"/>
<circle cx="643" cy="357" r="9" fill="#DFDFDF"/>
<circle cx="669" cy="357" r="9" fill="#DFDFDF"/>
<circle cx="695" cy="357" r="9" fill="#DFDFDF"/>
<circle cx="721" cy="357" r="9" fill="#DFDFDF"/>
<circle cx="747" cy="357" r="9" fill="#DFDFDF"/>
<circle cx="773" cy="357" r="9" fill="#DFDFDF"/>
<circle cx="799" cy="357" r="9" fill="#DFDFDF"/>
<circle cx="825" cy="357" r="9" fill="#DFDFDF"/>
<circle cx="851" cy="357" r="9" fill="#DFDFDF"/>
<circle cx="877" cy="357" r="9" fill="#DFDFDF"/>
<circle cx="903" cy="357" r="9" fill="#DFDFDF"/>
<circle cx="929" cy="357" r="9" fill="#DFDFDF"/>
<circle cx="955" cy="357" r="9" fill="#DFDFDF"/>
<circle cx="981" cy="357" r="9" fill="#DFDFDF"/>
<circle cx="1007" cy="357" r="9" fill="#DFDFDF"/>
<circle cx="1033" cy="357" r="9" fill="#DFDFDF"/>
<circle cx="409" cy="383" r="9" fill="#DFDFDF"/>
<circle cx="435" cy="383" r="9" fill="#DFDFDF"/>
<circle cx="461" cy="383" r="9" fill="#DFDFDF"/>
<circle cx="487" cy="383" r="9" fill="#DFDFDF"/>
<circle cx="513" cy="383" r="9" fill="#DFDFDF"/>
<circle cx="539" cy="383" r="9" fill="#DFDFDF"/>
<circle cx="565" cy="383" r="9" fill="#DFDFDF"/>
<circle cx="591" cy="383" r="9" fill="#DFDFDF"/>
<circle cx="617" cy="383" r="9" fill="#DFDFDF"/>
<circle cx="643" cy="383" r="9" fill="#DFDFDF"/>
<circle cx="669" cy="383" r="9" fill="#DFDFDF"/>
<circle cx="695" cy="383" r="9" fill="#DFDFDF"/>
<circle cx="721" cy="383" r="9" fill="#DFDFDF"/>
<circle cx="747" cy="383" r="9" fill="#DFDFDF"/>
<circle cx="773" cy="383" r="9" fill="#DFDFDF"/>
<circle cx="799" cy="383" r="9" fill="#DFDFDF"/>
<circle cx="825" cy="383" r="9" fill="#DFDFDF"/>
<circle cx="851" cy="383" r="9" fill="#DFDFDF"/>
<circle cx="877" cy="383" r="9" fill="#DFDFDF"/>
<circle cx="903" cy="383" r="9" fill="#DFDFDF"/>
<circle cx="929" cy="383" r="9" fill="#DFDFDF"/>
<circle cx="955" cy="383" r="9" fill="#DFDFDF"/>
<circle cx="981" cy="383" r="9" fill="#DFDFDF"/>
<circle cx="1007" cy="383" r="9" fill="#DFDFDF"/>
<circle cx="1033" cy="383" r="9" fill="#DFDFDF"/>
<circle cx="409" cy="409" r="9" fill="#DFDFDF"/>
<circle cx="435" cy="409" r="9" fill="#DFDFDF"/>
<circle cx="461" cy="409" r="9" fill="#DFDFDF"/>
<circle cx="487" cy="409" r="9" fill="#DFDFDF"/>
<circle cx="513" cy="409" r="9" fill="#DFDFDF"/>
<circle cx="539" cy="409" r="9" fill="#DFDFDF"/>
<circle cx="565" cy="409" r="9" fill="#DFDFDF"/>
<circle cx="591" cy="409" r="9" fill="#DFDFDF"/>
<circle cx="617" cy="409" r="9" fill="#DFDFDF"/>
<circle cx="643" cy="409" r="9" fill="#DFDFDF"/>
<circle cx="669" cy="409" r="9" fill="#DFDFDF"/>
<circle cx="695" cy="409" r="9" fill="#DFDFDF"/>
<circle cx="721" cy="409" r="9" fill="#DFDFDF"/>
<circle cx="747" cy="409" r="9" fill="#DFDFDF"/>
<circle cx="773" cy="409" r="9" fill="#DFDFDF"/>
<circle cx="799" cy="409" r="9" fill="#DFDFDF"/>
<circle cx="825" cy="409" r="9" fill="#DFDFDF"/>
<circle cx="851" cy="409" r="9" fill="#DFDFDF"/>
<circle cx="877" cy="409" r="9" fill="#DFDFDF"/>
<circle cx="903" cy="409" r="9" fill="#DFDFDF"/>
<circle cx="929" cy="409" r="9" fill="#DFDFDF"/>
<circle cx="955" cy="409" r="9" fill="#DFDFDF"/>
<circle cx="981" cy="409" r="9" fill="#DFDFDF"/>
<circle cx="1007" cy="409" r="9" fill="#DFDFDF"/>
<circle cx="1033" cy="409" r="9" fill="#DFDFDF"/>
<circle cx="409" cy="435" r="9" fill="#DFDFDF"/>
<circle cx="435" cy="435" r="9" fill="#DFDFDF"/>
<circle cx="461" cy="435" r="9" fill="#DFDFDF"/>
<circle cx="487" cy="435" r="9" fill="#DFDFDF"/>
<circle cx="513" cy="435" r="9" fill="#DFDFDF"/>
<circle cx="539" cy="435" r="9" fill="#DFDFDF"/>
<circle cx="565" cy="435" r="9" fill="#DFDFDF"/>
<circle cx="591" cy="435" r="9" fill="#DFDFDF"/>
<circle cx="617" cy="435" r="9" fill="#DFDFDF"/>
<circle cx="643" cy="435" r="9" fill="#DFDFDF"/>
<circle cx="669" cy="435" r="9" fill="#DFDFDF"/>
<circle cx="695" cy="435" r="9" fill="#DFDFDF"/>
<circle cx="721" cy="435" r="9" fill="#DFDFDF"/>
<circle cx="747" cy="435" r="9" fill="#DFDFDF"/>
<circle cx="773" cy="435" r="9" fill="#DFDFDF"/>
<circle cx="799" cy="435" r="9" fill="#DFDFDF"/>
<circle cx="825" cy="435" r="9" fill="#DFDFDF"/>
<circle cx="851" cy="435" r="9" fill="#DFDFDF"/>
<circle cx="877" cy="435" r="9" fill="#DFDFDF"/>
<circle cx="903" cy="435" r="9" fill="#DFDFDF"/>
<circle cx="929" cy="435" r="9" fill="#DFDFDF"/>
<circle cx="955" cy="435" r="9" fill="#DFDFDF"/>
<circle cx="981" cy="435" r="9" fill="#DFDFDF"/>
<circle cx="1007" cy="435" r="9" fill="#DFDFDF"/>
<circle cx="1033" cy="435" r="9" fill="#DFDFDF"/>
<circle cx="409" cy="461" r="9" fill="#DFDFDF"/>
<circle cx="435" cy="461" r="9" fill="#DFDFDF"/>
<circle cx="461" cy="461" r="9" fill="#DFDFDF"/>
<circle cx="487" cy="461" r="9" fill="#DFDFDF"/>
<circle cx="513" cy="461" r="9" fill="#DFDFDF"/>
<circle cx="539" cy="461" r="9" fill="#DFDFDF"/>
<circle cx="565" cy="461" r="9" fill="#DFDFDF"/>
<circle cx="591" cy="461" r="9" fill="#DFDFDF"/>
<circle cx="617" cy="461" r="9" fill="#DFDFDF"/>
<circle cx="643" cy="461" r="9" fill="#DFDFDF"/>
<circle cx="669" cy="461" r="9" fill="#DFDFDF"/>
<circle cx="695" cy="461" r="9" fill="#DFDFDF"/>
<circle cx="721" cy="461" r="9" fill="#DFDFDF"/>
<circle cx="747" cy="461" r="9" fill="#DFDFDF"/>
<circle cx="773" cy="461" r="9" fill="#DFDFDF"/>
<circle cx="799" cy="461" r="9" fill="#DFDFDF"/>
<circle cx="825" cy="461" r="9" fill="#DFDFDF"/>
<circle cx="851" cy="461" r="9" fill="#DFDFDF"/>
<circle cx="877" cy="461" r="9" fill="#DFDFDF"/>
<circle cx="903" cy="461" r="9" fill="#DFDFDF"/>
<circle cx="929" cy="461" r="9" fill="#DFDFDF"/>
<circle cx="955" cy="461" r="9" fill="#DFDFDF"/>
<circle cx="981" cy="461" r="9" fill="#DFDFDF"/>
<circle cx="1007" cy="461" r="9" fill="#DFDFDF"/>
<circle cx="1033" cy="461" r="9" fill="#DFDFDF"/>
<circle cx="409" cy="487" r="9" fill="#DFDFDF"/>
<circle cx="435" cy="487" r="9" fill="#DFDFDF"/>
<circle cx="461" cy="487" r="9" fill="#DFDFDF"/>
<circle cx="487" cy="487" r="9" fill="#DFDFDF"/>
<circle cx="513" cy="487" r="9" fill="#DFDFDF"/>
<circle cx="539" cy="487" r="9" fill="#DFDFDF"/>
<circle cx="565" cy="487" r="9" fill="#DFDFDF"/>
<circle cx="591" cy="487" r="9" fill="#DFDFDF"/>
<circle cx="617" cy="487" r="9" fill="#DFDFDF"/>
<circle cx="643" cy="487" r="9" fill="#DFDFDF"/>
<circle cx="669" cy="487" r="9" fill="#DFDFDF"/>
<circle cx="695" cy="487" r="9" fill="#DFDFDF"/>
<circle cx="721" cy="487" r="9" fill="#DFDFDF"/>
<circle cx="747" cy="487" r="9" fill="#DFDFDF"/>
<circle cx="773" cy="487" r="9" fill="#DFDFDF"/>
<circle cx="799" cy="487" r="9" fill="#DFDFDF"/>
<circle cx="825" cy="487" r="9" fill="#DFDFDF"/>
<circle cx="851" cy="487" r="9" fill="#DFDFDF"/>
<circle cx="877" cy="487" r="9" fill="#DFDFDF"/>
<circle cx="903" cy="487" r="9" fill="#DFDFDF"/>
<circle cx="929" cy="487" r="9" fill="#DFDFDF"/>
<circle cx="955" cy="487" r="9" fill="#DFDFDF"/>
<circle cx="981" cy="487" r="9" fill="#DFDFDF"/>
<circle cx="1007" cy="487" r="9" fill="#DFDFDF"/>
<circle cx="1033" cy="487" r="9" fill="#DFDFDF"/>
<circle cx="409" cy="513" r="9" fill="#DFDFDF"/>
<circle cx="435" cy="513" r="9" fill="#DFDFDF"/>
<circle cx="461" cy="513" r="9" fill="#DFDFDF"/>
<circle cx="487" cy="513" r="9" fill="#DFDFDF"/>
<circle cx="513" cy="513" r="9" fill="#DFDFDF"/>
<circle cx="539" cy="513" r="9" fill="#DFDFDF"/>
<circle cx="565" cy="513" r="9" fill="#DFDFDF"/>
<circle cx="591" cy="513" r="9" fill="#DFDFDF"/>
<circle cx="617" cy="513" r="9" fill="#DFDFDF"/>
<circle cx="643" cy="513" r="9" fill="#DFDFDF"/>
<circle cx="669" cy="513" r="9" fill="#DFDFDF"/>
<circle cx="695" cy="513" r="9" fill="#DFDFDF"/>
<circle cx="721" cy="513" r="9" fill="#DFDFDF"/>
<circle cx="747" cy="513" r="9" fill="#DFDFDF"/>
<circle cx="773" cy="513" r="9" fill="#DFDFDF"/>
<circle cx="799" cy="513" r="9" fill="#DFDFDF"/>
<circle cx="825" cy="513" r="9" fill="#DFDFDF"/>
<circle cx="851" cy="513" r="9" fill="#DFDFDF"/>
<circle cx="877" cy="513" r="9" fill="#DFDFDF"/>
<circle cx="903" cy="513" r="9" fill="#DFDFDF"/>
<circle cx="929" cy="513" r="9" fill="#DFDFDF"/>
<circle cx="955" cy="513" r="9" fill="#DFDFDF"/>
<circle cx="981" cy="513" r="9" fill="#DFDFDF"/>
<circle cx="1007" cy="513" r="9" fill="#DFDFDF"/>
<circle cx="1033" cy="513" r="9" fill="#DFDFDF"/>
<circle cx="409" cy="539" r="9" fill="#DFDFDF"/>
<circle cx="435" cy="539" r="9" fill="#DFDFDF"/>
<circle cx="461" cy="539" r="9" fill="#DFDFDF"/>
<circle cx="487" cy="539" r="9" fill="#DFDFDF"/>
<circle cx="513" cy="539" r="9" fill="#DFDFDF"/>
<circle cx="539" cy="539" r="9" fill="#DFDFDF"/>
<circle cx="565" cy="539" r="9" fill="#DFDFDF"/>
<circle cx="591" cy="539" r="9" fill="#DFDFDF"/>
<circle cx="617" cy="539" r="9" fill="#DFDFDF"/>
<circle cx="643" cy="539" r="9" fill="#DFDFDF"/>
<circle cx="669" cy="539" r="9" fill="#DFDFDF"/>
<circle cx="695" cy="539" r="9" fill="#DFDFDF"/>
<circle cx="721" cy="539" r="9" fill="#DFDFDF"/>
<circle cx="747" cy="539" r="9" fill="#DFDFDF"/>
<circle cx="773" cy="539" r="9" fill="#DFDFDF"/>
<circle cx="799" cy="539" r="9" fill="#DFDFDF"/>
<circle cx="825" cy="539" r="9" fill="#DFDFDF"/>
<circle cx="851" cy="539" r="9" fill="#DFDFDF"/>
<circle cx="877" cy="539" r="9" fill="#DFDFDF"/>
<circle cx="903" cy="539" r="9" fill="#DFDFDF"/>
<circle cx="929" cy="539" r="9" fill="#DFDFDF"/>
<circle cx="955" cy="539" r="9" fill="#DFDFDF"/>
<circle cx="981" cy="539" r="9" fill="#DFDFDF"/>
<circle cx="1007" cy="539" r="9" fill="#DFDFDF"/>
<circle cx="1033" cy="539" r="9" fill="#DFDFDF"/>
<circle cx="409" cy="565" r="9" fill="#DFDFDF"/>
<circle cx="435" cy="565" r="9" fill="#DFDFDF"/>
<circle cx="461" cy="565" r="9" fill="#DFDFDF"/>
<circle cx="487" cy="565" r="9" fill="#DFDFDF"/>
<circle cx="513" cy="565" r="9" fill="#DFDFDF"/>
<circle cx="539" cy="565" r="9" fill="#DFDFDF"/>
<circle cx="565" cy="565" r="9" fill="#DFDFDF"/>
<circle cx="591" cy="565" r="9" fill="#DFDFDF"/>
<circle cx="617" cy="565" r="9" fill="#DFDFDF"/>
<circle cx="643" cy="565" r="9" fill="#DFDFDF"/>
<circle cx="669" cy="565" r="9" fill="#DFDFDF"/>
<circle cx="695" cy="565" r="9" fill="#DFDFDF"/>
<circle cx="721" cy="565" r="9" fill="#DFDFDF"/>
<circle cx="747" cy="565" r="9" fill="#DFDFDF"/>
<circle cx="773" cy="565" r="9" fill="#DFDFDF"/>
<circle cx="799" cy="565" r="9" fill="#DFDFDF"/>
<circle cx="825" cy="565" r="9" fill="#DFDFDF"/>
<circle cx="851" cy="565" r="9" fill="#DFDFDF"/>
<circle cx="877" cy="565" r="9" fill="#DFDFDF"/>
<circle cx="903" cy="565" r="9" fill="#DFDFDF"/>
<circle cx="929" cy="565" r="9" fill="#DFDFDF"/>
<circle cx="955" cy="565" r="9" fill="#DFDFDF"/>
<circle cx="981" cy="565" r="9" fill="#DFDFDF"/>
<circle cx="1007" cy="565" r="9" fill="#DFDFDF"/>
<circle cx="1033" cy="565" r="9" fill="#DFDFDF"/>
<circle cx="409" cy="591" r="9" fill="#DFDFDF"/>
<circle cx="435" cy="591" r="9" fill="#DFDFDF"/>
<circle cx="461" cy="591" r="9" fill="#DFDFDF"/>
<circle cx="487" cy="591" r="9" fill="#DFDFDF"/>
<circle cx="513" cy="591" r="9" fill="#DFDFDF"/>
<circle cx="539" cy="591" r="9" fill="#DFDFDF"/>
<circle cx="565" cy="591" r="9" fill="#DFDFDF"/>
<circle cx="591" cy="591" r="9" fill="#DFDFDF"/>
<circle cx="617" cy="591" r="9" fill="#DFDFDF"/>
<circle cx="643" cy="591" r="9" fill="#DFDFDF"/>
<circle cx="669" cy="591" r="9" fill="#DFDFDF"/>
<circle cx="695" cy="591" r="9" fill="#DFDFDF"/>
<circle cx="721" cy="591" r="9" fill="#DFDFDF"/>
<circle cx="747" cy="591" r="9" fill="#DFDFDF"/>
<circle cx="773" cy="591" r="9" fill="#DFDFDF"/>
<circle cx="799" cy="591" r="9" fill="#DFDFDF"/>
<circle cx="825" cy="591" r="9" fill="#DFDFDF"/>
<circle cx="851" cy="591" r="9" fill="#DFDFDF"/>
<circle cx="877" cy="591" r="9" fill="#DFDFDF"/>
<circle cx="903" cy="591" r="9" fill="#DFDFDF"/>
<circle cx="929" cy="591" r="9" fill="#DFDFDF"/>
<circle cx="955" cy="591" r="9" fill="#DFDFDF"/>
<circle cx="981" cy="591" r="9" fill="#DFDFDF"/>
<circle cx="1007" cy="591" r="9" fill="#DFDFDF"/>
<circle cx="1033" cy="591" r="9" fill="#DFDFDF"/>
<circle cx="409" cy="617" r="9" fill="#DFDFDF"/>
<circle cx="435" cy="617" r="9" fill="#DFDFDF"/>
<circle cx="461" cy="617" r="9" fill="#DFDFDF"/>
<circle cx="487" cy="617" r="9" fill="#DFDFDF"/>
<circle cx="513" cy="617" r="9" fill="#DFDFDF"/>
<circle cx="539" cy="617" r="9" fill="#DFDFDF"/>
<circle cx="565" cy="617" r="9" fill="#DFDFDF"/>
<circle cx="591" cy="617" r="9" fill="#DFDFDF"/>
<circle cx="617" cy="617" r="9" fill="#DFDFDF"/>
<circle cx="643" cy="617" r="9" fill="#DFDFDF"/>
<circle cx="669" cy="617" r="9" fill="#DFDFDF"/>
<circle cx="695" cy="617" r="9" fill="#DFDFDF"/>
<circle cx="721" cy="617" r="9" fill="#DFDFDF"/>
<circle cx="747" cy="617" r="9" fill="#DFDFDF"/>
<circle cx="773" cy="617" r="9" fill="#DFDFDF"/>
<circle cx="799" cy="617" r="9" fill="#DFDFDF"/>
<circle cx="825" cy="617" r="9" fill="#DFDFDF"/>
<circle cx="851" cy="617" r="9" fill="#DFDFDF"/>
<circle cx="877" cy="617" r="9" fill="#DFDFDF"/>
<circle cx="903" cy="617" r="9" fill="#DFDFDF"/>
<circle cx="929" cy="617" r="9" fill="#DFDFDF"/>
<circle cx="955" cy="617" r="9" fill="#DFDFDF"/>
<circle cx="981" cy="617" r="9" fill="#DFDFDF"/>
<circle cx="1007" cy="617" r="9" fill="#DFDFDF"/>
<circle cx="1033" cy="617" r="9" fill="#DFDFDF"/>
<circle cx="409" cy="643" r="9" fill="#DFDFDF"/>
<circle cx="435" cy="643" r="9" fill="#DFDFDF"/>
<circle cx="461" cy="643" r="9" fill="#DFDFDF"/>
<circle cx="487" cy="643" r="9" fill="#DFDFDF"/>
<circle cx="513" cy="643" r="9" fill="#DFDFDF"/>
<circle cx="539" cy="643" r="9" fill="#DFDFDF"/>
<circle cx="565" cy="643" r="9" fill="#DFDFDF"/>
<circle cx="591" cy="643" r="9" fill="#DFDFDF"/>
<circle cx="617" cy="643" r="9" fill="#DFDFDF"/>
<circle cx="643" cy="643" r="9" fill="#DFDFDF"/>
<circle cx="669" cy="643" r="9" fill="#DFDFDF"/>
<circle cx="695" cy="643" r="9" fill="#DFDFDF"/>
<circle cx="721" cy="643" r="9" fill="#DFDFDF"/>
<circle cx="747" cy="643" r="9" fill="#DFDFDF"/>
<circle cx="773" cy="643" r="9" fill="#DFDFDF"/>
<circle cx="799" cy="643" r="9" fill="#DFDFDF"/>
<circle cx="825" cy="643" r="9" fill="#DFDFDF"/>
<circle cx="851" cy="643" r="9" fill="#DFDFDF"/>
<circle cx="877" cy="643" r="9" fill="#DFDFDF"/>
<circle cx="903" cy="643" r="9" fill="#DFDFDF"/>
<circle cx="929" cy="643" r="9" fill="#DFDFDF"/>
<circle cx="955" cy="643" r="9" fill="#DFDFDF"/>
<circle cx="981" cy="643" r="9" fill="#DFDFDF"/>
<circle cx="1007" cy="643" r="9" fill="#DFDFDF"/>
<circle cx="1033" cy="643" r="9" fill="#DFDFDF"/>
</svg>
